# xmcd
#
# Track frame offsets:
# 150
# 14802
# 30002
# 46174
# 62726
# 81727
# 95126
# 114021
#
# Disc length: 1726 seconds
#
#
# Revision: 0
# Processed by: cddbd v1.5.1PL0 Copyright (c) Steve Scherf et al.
# Submitted via: FreeRIP 2.942 
#
DISCID=5f06bc08
DTITLE=Carrie Ashton - Modern Day Gypsy
DYEAR=2005
DGENRE=Folk/Rock
TTITLE0=Always There
TTITLE1=Even More
TTITLE2=Everything in my Heart
TTITLE3=Blind
TTITLE4=Yes
TTITLE5=You Want Me
TTITLE6=On Common Ground
TTITLE7=If You'd Let Me
EXTD=
EXTT0=
EXTT1=
EXTT2=
EXTT3=
EXTT4=
EXTT5=
EXTT6=
EXTT7=
PLAYORDER=
